<svg width="20" height="20" viewBox="0 0 20 20" fill="none" xmlns="http://www.w3.org/2000/svg">
<g clip-path="url(#clip0_429_370)">
<path d="M5.00004 8.33301C4.08337 8.33301 3.33337 9.08301 3.33337 9.99967C3.33337 10.9163 4.08337 11.6663 5.00004 11.6663C5.91671 11.6663 6.66671 10.9163 6.66671 9.99967C6.66671 9.08301 5.91671 8.33301 5.00004 8.33301ZM15 8.33301C14.0834 8.33301 13.3334 9.08301 13.3334 9.99967C13.3334 10.9163 14.0834 11.6663 15 11.6663C15.9167 11.6663 16.6667 10.9163 16.6667 9.99967C16.6667 9.08301 15.9167 8.33301 15 8.33301ZM10 8.33301C9.08337 8.33301 8.33337 9.08301 8.33337 9.99967C8.33337 10.9163 9.08337 11.6663 10 11.6663C10.9167 11.6663 11.6667 10.9163 11.6667 9.99967C11.6667 9.08301 10.9167 8.33301 10 8.33301Z" fill="#C2CFE0"/>
</g>
<defs>
<clipPath id="clip0_429_370">
<rect width="20" height="20" fill="white"/>
</clipPath>
</defs>
</svg>
